HIERARCHY
ROOT Hips
{
	OFFSET -3.958830 18.904000 13.208200
	CHANNELS 6 Xposition Yposition Zposition Zrotation Yrotation Xrotation 
	JOINT LHipJoint
	{
		OFFSET 0.000000 0.000000 0.000000
		CHANNELS 3 Zrotation Yrotation Xrotation
		JOINT LeftUpLeg
		{
			OFFSET 1.800000 -1.400000 0.085000
			CHANNELS 3 Zrotation Yrotation Xrotation
			JOINT LeftLeg
			{
				OFFSET 2.215000 -6.000000 0.000000
				CHANNELS 3 Zrotation Yrotation Xrotation
				JOINT LeftFoot
				{
					OFFSET 2.500000 -6.900000 0.000000
					CHANNELS 3 Zrotation Yrotation Xrotation
					JOINT LeftToeBase
					{
						OFFSET 0.200000 -0.500000 1.950000
						CHANNELS 3 Zrotation Yrotation Xrotation
						End Site
						{
							OFFSET 0.000000 0.000000 0.000000
						}
					}
				}
			}
		}
	}
	JOINT RHipJoint
	{
		OFFSET 0.000000 0.000000 0.000000
		CHANNELS 3 Zrotation Yrotation Xrotation
		JOINT RightUpLeg
		{
			OFFSET -1.800000 -1.400000 0.085000
			CHANNELS 3 Zrotation Yrotation Xrotation
			JOINT RightLeg
			{
				OFFSET -2.215000 -6.000000 0.000000
				CHANNELS 3 Zrotation Yrotation Xrotation
				JOINT RightFoot
				{
					OFFSET -2.500000 -6.900000 0.000000
					CHANNELS 3 Zrotation Yrotation Xrotation
					JOINT RightToeBase
					{
						OFFSET -0.200000 -0.500000 1.950000
						CHANNELS 3 Zrotation Yrotation Xrotation
						End Site
						{
							OFFSET 0.000000 0.000000 0.000000
						}
					}
				}
			}
		}
	}
	JOINT LowerBack
	{
		OFFSET 0.000000 0.000000 0.000000
		CHANNELS 3 Zrotation Yrotation Xrotation
		JOINT Spine
		{
			OFFSET -0.087000 1.940000 -0.288900
			CHANNELS 3 Zrotation Yrotation Xrotation
			JOINT Spine1
			{
				OFFSET 0.000000 1.950000 0.060000
				CHANNELS 3 Zrotation Yrotation Xrotation
				JOINT Neck
				{
					OFFSET 0.000000 0.000000 0.000000
					CHANNELS 3 Zrotation Yrotation Xrotation
					JOINT Neck1
					{
						OFFSET 0.000000 1.600000 0.340000
						CHANNELS 3 Zrotation Yrotation Xrotation
						JOINT Head
						{
							OFFSET 0.000000 1.667000 -0.240000
							CHANNELS 3 Zrotation Yrotation Xrotation
							End Site
							{
								OFFSET 0.000000 0.000000 0.000000
							}
						}
					}
				}
				JOINT LeftShoulder
				{
					OFFSET 0.000000 0.000000 0.000000
					CHANNELS 3 Zrotation Yrotation Xrotation
					JOINT LeftArm
					{
						OFFSET 2.700000 1.550000 -0.730000
						CHANNELS 3 Zrotation Yrotation Xrotation
						JOINT LeftForeArm
						{
							OFFSET 5.450000 0.000000 0.000000
							CHANNELS 3 Zrotation Yrotation Xrotation
							JOINT LeftHand
							{
								OFFSET 3.450000 0.000000 0.000000
								CHANNELS 3 Zrotation Yrotation Xrotation
								JOINT LeftHandIndex1
								{
									OFFSET 0.750000 0.000000 0.000000
									CHANNELS 3 Zrotation Yrotation Xrotation
									End Site
									{
										OFFSET 0.000000 0.000000 0.000000
									}
								}
							}
						}
					}
				}
				JOINT RightShoulder
				{
					OFFSET 0.000000 0.000000 0.000000
					CHANNELS 3 Zrotation Yrotation Xrotation
					JOINT RightArm
					{
						OFFSET -2.700000 1.550000 -0.730000
						CHANNELS 3 Zrotation Yrotation Xrotation
						JOINT RightForeArm
						{
							OFFSET -5.450000 0.000000 0.000000
							CHANNELS 3 Zrotation Yrotation Xrotation
							JOINT RightHand
							{
								OFFSET -3.450000 0.000000 0.000000
								CHANNELS 3 Zrotation Yrotation Xrotation
								JOINT RightHandIndex1
								{
									OFFSET -0.750000 0.000000 0.000000
									CHANNELS 3 Zrotation Yrotation Xrotation
									End Site
									{
										OFFSET 0.000000 0.000000 0.000000
									}
								}
							}
						}
					}
				}
			}
		}
	}
}
MOTION
Frames: 13
Frame Time: 0.016667
-0.214380 15.261520 -1.582130 -3.086342 -23.566827 -3.517185 -15.761112 7.299634 7.056016 43.477032 -2.203425 -40.987218 -39.640671 49.668719 62.469851 2.379067 17.552925 -0.519919 -0.320980 -0.528020 -0.483520 18.830154 -6.111072 4.737604 -21.071443 10.961645 -54.188998 17.065477 -36.690362 81.380441 -2.920959 -17.092593 -0.835607 0.035180 1.427740 0.385070 -4.789053 -0.184679 -10.707189 16.898010 -5.110916 37.182349 -6.692001 -1.118639 17.380273 -1.377433 -0.435266 -5.231035 -3.368747 6.582957 48.392949 -4.961140 3.756780 8.994040 14.199202 -18.526392 -1.815567 -4.045140 -45.282722 9.397333 6.372978 1.954129 -1.298860 -4.996451 2.498192 0.098300 0.910730 -0.562730 0.373930 -11.567847 17.252010 0.957256 20.461985 43.129399 6.442861 -105.565007 70.242829 -93.876861 1.937271 1.480337 -0.677540 0.635240 0.482610 0.168760 
-0.203290 15.266440 -1.545140 -2.912063 -23.923847 -3.820848 -15.756488 7.238464 7.023232 44.445254 -2.550733 -39.998971 -38.081520 49.945549 64.193019 2.359121 17.798509 -0.572632 -0.370970 -0.625010 -0.469930 18.841085 -6.077830 4.819958 -23.317413 9.605405 -54.083851 19.545315 -38.498932 79.643272 -2.917396 -17.100629 -0.840506 0.001260 1.456070 0.385810 -4.853039 -0.115911 -10.726657 17.260102 -5.563449 37.262680 -7.018232 -1.434780 17.577890 -1.252894 -0.643321 -5.493448 -3.346288 6.123048 45.808065 -6.176470 3.470810 8.545230 13.301401 -16.299366 -1.780786 -2.439129 -43.346755 8.915345 4.226481 -2.461200 -0.899025 -4.944611 2.428732 0.147940 0.928250 -0.579190 0.347950 -10.705412 15.254369 1.995225 21.622892 39.810559 4.326086 -126.558272 66.310384 -121.922720 1.856121 -1.504493 -0.738580 0.670000 0.523330 0.132310 
-0.190260 15.280450 -1.441290 -2.986228 -24.960412 -3.945424 -15.818803 7.225949 6.867870 46.263972 -3.188069 -38.188178 -29.892964 49.077237 71.604647 2.389055 18.545872 -0.751423 -0.425290 -0.691810 -0.447920 18.819769 -5.736220 5.138553 -28.993525 6.711116 -54.229407 28.056604 -43.341075 73.610299 -2.890661 -16.760006 -0.683058 -0.007990 1.446470 0.230170 -4.838164 -0.494021 -10.784943 17.700096 -6.851855 36.677808 -6.978680 -2.543719 18.022403 -1.343410 -2.496671 -7.493630 -6.704443 7.210773 42.533226 -6.789230 2.935360 7.164330 12.551999 -13.146424 0.908964 -5.919775 -35.542566 7.810529 5.855987 -9.506278 -0.797815 -4.710225 2.246341 0.276080 0.868060 -0.583370 0.330260 -9.828947 13.229278 3.692428 23.138464 33.504403 1.509798 -142.598213 58.358487 -137.377493 1.701465 -1.744121 -0.889060 0.814080 0.516230 0.079290 
-0.180610 15.310740 -1.336890 -2.795012 -26.657770 -4.931796 -15.819001 7.740477 6.156056 44.791091 -4.669028 -34.861935 -16.204026 42.967319 81.747050 2.466050 19.174636 -0.950328 -0.465240 -0.720920 -0.458600 18.782334 -5.730278 5.509238 -34.297272 4.071576 -53.102457 37.627474 -46.351230 65.900864 -2.794974 -15.825939 -0.429420 -0.069670 1.393370 0.236840 -4.806243 -0.909197 -10.624387 18.040777 -8.136023 37.715607 -7.795848 -3.597885 18.199439 -0.639111 -3.960595 -9.505261 -9.055428 7.883108 37.808128 -7.872930 2.916460 4.149730 10.356684 -9.944820 2.542565 -9.964083 -26.965600 5.066163 7.829967 -16.333184 -1.193303 -4.558909 2.238450 0.349090 0.808430 -0.495720 0.309330 -8.974280 10.874676 6.354878 28.919831 25.518436 -0.115215 -148.438383 48.070028 -139.552355 1.694417 -1.693979 -0.865660 0.842220 0.543140 0.079350 
-0.188450 15.303650 -1.190500 -2.932127 -28.079059 -4.841589 -15.747834 8.932294 4.854172 40.746372 -5.754525 -31.870193 -1.023531 30.838214 89.000507 2.216547 18.059399 -0.793519 -0.411550 -0.640510 -0.416710 18.739320 -6.053962 5.898569 -38.924700 1.274798 -51.452485 47.802120 -46.732137 56.053782 -2.616087 -14.441426 -0.094463 -0.119450 1.216080 0.286690 -4.685325 -1.652876 -10.238039 19.001237 -8.953751 37.346709 -7.470071 -4.567557 15.928028 0.444000 -5.401874 -10.551664 -11.742395 8.572220 35.151147 -10.212240 4.161580 1.017740 5.460888 -6.281325 2.303274 -13.699068 -20.977341 3.206922 5.668400 -19.545661 -0.879755 -4.402387 2.346265 0.415250 0.694100 -0.343050 0.304350 -6.238916 8.252427 7.895513 36.271840 18.012078 -0.223482 -151.814933 39.224657 -135.825910 1.762880 -1.729513 -0.741730 0.733530 0.487950 0.083010 
-0.172150 15.275320 -0.977360 -4.255648 -31.250084 -3.087971 -15.531696 10.179411 3.335901 36.274758 -5.470624 -25.809478 9.274772 18.668240 87.177546 1.879117 15.979105 -0.340674 -0.405820 -0.605000 -0.472470 18.798502 -6.709577 6.260952 -41.825190 -0.045142 -50.414260 55.720018 -43.466941 46.244291 -2.406661 -13.129907 0.222440 -0.213310 1.107430 0.346470 -5.012101 -1.763583 -9.593096 23.611714 -11.459918 34.179008 -9.696097 -6.673530 12.408269 1.469916 -7.947915 -11.010362 -16.948601 11.210995 34.295963 -10.915570 5.133160 -1.089360 -0.156687 -2.192667 2.203596 -18.216895 -11.484031 0.952351 0.280084 -20.109574 -0.151169 -4.291516 2.481374 0.441420 0.578730 -0.219430 0.309870 -2.551336 5.443438 8.056328 43.840539 13.104769 0.573321 -153.842221 36.177417 -132.434085 1.855975 -1.742669 -0.587980 0.645050 0.491290 0.145840 
-0.205500 15.234710 -0.766640 -3.961374 -35.033891 -2.787288 -15.339053 11.688607 1.709872 30.540250 -4.049649 -16.067727 16.834118 7.862595 75.757929 1.377802 13.613116 0.280830 -0.389130 -0.644240 -0.511400 18.792281 -7.324307 6.759902 -45.656561 -0.227980 -48.451057 63.053693 -36.655556 35.677579 -2.146926 -11.881508 0.522152 -0.283030 1.057360 0.335990 -5.089928 -2.179053 -8.933477 24.989000 -12.818299 34.493384 -9.004452 -8.434935 4.825537 0.817504 -10.249932 -10.200631 -20.833820 12.797725 30.650694 -8.356100 4.645250 -2.388810 -4.148895 3.732180 1.510643 -23.339053 0.093950 -2.018540 -6.717595 -19.177187 0.358630 -4.118413 2.660036 0.535220 0.449620 -0.196930 0.326500 2.653729 1.414119 6.951852 50.138213 8.307667 1.105519 -156.962788 38.157266 -136.842314 1.919662 -1.791037 -0.561740 0.591240 0.489450 0.161600 
-0.242590 15.212270 -0.545820 -4.915320 -38.903980 0.018280 -15.316882 13.125286 0.869945 26.563886 -1.547095 -8.069144 22.151436 2.164495 60.023713 1.059455 11.196407 0.995771 -0.451550 -0.761260 -0.567550 18.637578 -7.232720 7.177241 -47.932755 0.791200 -46.065578 67.886848 -27.099533 24.240954 -1.857585 -10.479383 0.893937 -0.465340 0.940460 0.321110 -4.465497 -3.891420 -8.746844 27.746596 -12.617077 35.058181 -7.166783 -6.876248 -8.810888 2.324518 -11.235617 -9.949148 -24.429140 13.539424 35.484188 -7.847260 5.722310 3.371500 -8.589794 11.493989 -1.578000 -28.460738 6.703586 -3.867372 -5.584890 -7.011052 -0.809463 -4.082478 2.569473 0.582670 0.305090 -0.139720 0.311430 3.481649 -3.424800 8.128386 55.945050 -2.755527 0.240002 -165.666160 39.803479 -154.430568 2.041425 -1.899018 -0.466880 0.437740 0.477940 0.192720 
-0.335450 15.150830 -0.341110 -5.917085 -40.660827 8.963283 -15.407711 13.640418 0.626344 25.135346 -0.027838 -7.712377 22.886790 1.708650 48.032780 0.661957 9.355311 1.532992 -0.447360 -0.777060 -0.515870 18.577358 -6.502298 7.636047 -50.312719 -0.399115 -47.230074 70.786055 -17.993861 12.459951 -1.581451 -9.072142 1.299368 -0.505150 0.844240 0.277740 -3.955191 -5.491965 -8.975871 30.497436 -10.692283 25.965338 -4.421116 -4.021619 -20.169284 2.822635 -10.619059 -6.675196 -23.423436 12.165941 42.171725 -9.551450 7.152620 7.286500 -8.272390 26.817188 -6.967552 -30.805936 13.764143 -6.198415 1.086405 -2.184239 -1.173484 -4.122329 2.332781 0.621000 0.238980 -0.101110 0.290960 1.058479 -17.030827 6.437194 55.598462 -13.144431 -0.399189 -178.225988 46.060016 178.621284 1.957383 -2.065017 -0.457520 0.380610 0.433710 0.167030 
-0.440260 15.065640 -0.166160 -6.689592 -42.821186 16.250979 -15.490926 13.700476 0.495109 25.651400 0.736366 -6.648814 18.470050 3.990405 40.219677 0.429395 8.252727 1.908600 -0.610130 -0.970110 -0.568670 18.568033 -5.823557 8.110378 -53.381961 -0.859542 -47.564401 73.406637 -9.475433 2.597440 -1.346645 -8.061978 1.650660 -0.630670 0.898860 0.310930 -3.779576 -6.315821 -9.261205 31.901703 -10.127958 18.376570 -0.965743 -2.158816 -23.850498 2.580119 -7.838060 -5.445231 -15.975709 8.825555 42.534934 -13.892180 12.631860 12.903610 -3.021190 35.359478 -7.667589 -30.035269 23.596495 -7.346415 0.669941 3.577635 -1.268367 -4.256697 2.080646 0.566860 0.350030 -0.145840 0.249070 -4.312790 -25.779595 5.456456 60.737989 -17.665233 -3.597822 -177.141063 51.018794 -177.718695 1.772656 -2.178834 -0.480230 0.311690 0.488900 0.145900 
-0.536910 15.079500 -0.057730 -4.166192 -46.170330 16.843665 -15.697800 14.066894 0.703022 24.536338 1.022364 -4.779779 11.844645 6.709060 37.050732 0.373197 7.827337 2.002895 -0.566170 -0.935030 -0.492390 18.341324 -5.169756 8.391527 -55.965502 -0.977361 -46.684380 73.512772 -5.370484 -1.179664 -1.358414 -7.571281 1.796938 -0.674440 0.749870 0.310040 -3.200042 -7.896203 -9.736623 28.597933 -10.605719 17.889563 1.982335 -0.284181 -28.904072 2.046628 -5.111480 -6.158571 -11.946997 7.728427 48.548849 -14.003280 14.520940 14.536070 3.260690 40.649060 -7.065881 -26.148125 34.791553 -7.230075 4.881375 2.945660 -0.978642 -4.119334 1.921406 0.683390 0.239180 -0.013840 0.233180 -8.786614 -30.846215 6.510722 62.325217 -25.486736 -8.499203 -168.602285 56.521023 -161.104214 1.697707 -2.352065 -0.431810 0.254550 0.439170 0.112930 
-0.566240 15.082980 0.039760 -2.760470 -48.030881 17.236608 -15.780698 13.998477 0.869615 24.103540 0.752515 -3.867328 6.994328 8.727871 36.369109 0.284955 8.075208 1.899662 -0.635550 -1.085880 -0.414510 18.281325 -4.859826 8.527076 -58.100263 -2.183592 -45.603129 74.969603 -3.640122 -3.095157 -1.345055 -7.432149 1.802671 -0.731910 0.709310 0.302480 -3.087829 -8.370062 -9.987272 28.152255 -11.429597 16.727657 2.594932 0.510204 -29.836244 1.601124 -2.512494 -6.358868 -7.001665 5.453719 50.405644 -15.780760 15.978430 15.301950 6.898623 40.754824 -6.611600 -24.699234 42.405440 -4.854805 8.063595 10.685701 -0.146093 -4.249334 1.472689 0.781410 0.228790 -0.014320 0.132510 -11.466125 -32.314502 6.530507 64.759832 -28.707506 -6.644131 -134.837761 53.477610 -102.743955 1.986340 -1.818952 -0.510080 0.258300 0.512410 0.009190 
-0.551320 15.163480 0.105010 -2.154919 -47.182023 17.520299 -15.867322 14.166620 1.116037 23.952815 0.445852 -6.032060 5.673844 9.370618 37.236686 0.232079 8.205056 1.779486 -0.660990 -1.160240 -0.350060 18.140418 -4.804617 8.456534 -58.005096 -2.459390 -44.357163 73.468573 -4.693695 -2.625975 -1.356886 -7.462940 1.746315 -0.786920 0.595680 0.326020 -2.619656 -8.931390 -10.314470 27.137332 -10.888102 17.729834 3.018139 2.750259 -31.092831 3.018703 1.024487 -7.637025 0.170525 1.058654 52.844953 -20.313520 15.977420 14.079780 7.570667 39.932552 -7.623018 -26.078480 44.010707 -3.196889 11.316290 17.372655 1.570780 -4.308810 1.207320 0.864830 0.174560 0.043860 0.054470 -14.558262 -32.338841 8.320200 67.426171 -31.336761 -9.076846 -124.591943 52.768407 -85.796448 1.972788 -1.072377 -0.502780 0.215490 0.552890 -0.055930 
